<?xml version="1.0" standalone="no"?>

<!-- Copyright © 2018 Rick Beerendonk -->

<!DOCTYPE svg PUBLIC "-//W3C//DTD SVG 1.1//EN" 
  "http://www.w3.org/Graphics/SVG/1.1/DTD/svg11.dtd">
<svg viewBox="0 -15 800 315" version="1.1"
     xmlns="http://www.w3.org/2000/svg">
  <desc>
    Oblicum Logo
  </desc>

  <!-- O -->
  <path d="M 0 150
      a 70 70 0 0 1 140 0
      a 70 70 0 0 1 -140 0
      m 30 0
      a 40 40 0 0 1 80 0
      a 40 40 0 0 1 -80 0
      z"
      fill="#fff" fill-rule="evenodd"
  />
  
  <!-- B -->
  <path d="M 150 0
    l 0 150
    l 30 0
    a 40 40 0 1 1 40 40
    l -32.5 0
    a 15 15 0 0 0 0 30
    l 32.5 0
    a 70 70 0 1 0 -70 -70
    l 30 0
    l 0 -150
    z"
    fill="#fff" />

  <path d="M 150 190
    a 15 15 0 0 0 0 30
    l 30 0
    a 15 15 0 0 1 0 -30
    z"
    fill="#d676ff"/>

  <!-- L -->
  <path d="M 300 37.5
    l 0 182.5
    l 30 0
    l 0 -182.5
    a 15 15 0 0 0 -30 0
    z"
    fill="#fff" />

  <path d="M 300 0
    l 0 30
    a 15 15 0 0 1 30 0
    l 0 -30
    a 15 15 0 0 0 -30 0
    z"
    fill="#d676ff" />

  <!-- I -->
  <path d="M 340 80
    l 0 140
    l 30 0
    l 0 -140
    z"
    fill="#fff" />

  <!-- C -->
  <!-- transform="rotate(45 460 140)" -->
  <path d="M 405.8855973 95.65002781
        A 70 70 0 1 0 520 150
        l -30 0
        A 40 40 0 1 1 424.7917699 118.942873
        A 15 15 0 0 0 405.8855973 95.65002781
        z"
    fill="#fff" />

  <path d="M 450 80
    a 15 15 0 0 1 0 30
    a 40 40 0 0 0 -20.75226925 5.804337686
    a 15 15 0 0 0 -15.56420193 -25.64674674
    a 70 70 0 0 1 36.31647118 -10.15759095
    z"
    fill="#d676ff" />    

  <!-- U -->
  <path d="M 530 80
        l 0 80
        a 60 60 0 0 0 120 0
        l 0 -80
        l -30 0
        l 0 80
        a 20 20 0 0 1 -60 0
        l 0 -80
        z"
    fill="#fff" />

  <!-- M -->
  <path d="M 660 80
        l 0 140
        l 30 0
        l 0 -140
        l -30 0
        a 70 70 0 1 0 140 0
        l -30 0
        a 40 40 0 0 1 -80 0
        m 80 0
        l 0 102.5
        a 15 15 0 0 0 30 0
        l 0 -102.5
        z"
    fill="#fff" />

  <path d="M 770 190
    l 0 30
    a 15 15 0 0 0 30 0
    l 0 -30
    a 15 15 0 0 1 -30 0
    z"
    fill="#d676ff" />

</svg>